# Blender v2.57 (sub 0) OBJ File: ''
# www.blender.org
mtllib cylinder.mtl
o Cylinder
v 0.000000 -1.000000 -1.000000
v 0.195090 -1.000000 -0.980785
v 0.382683 -1.000000 -0.923880
v 0.555570 -1.000000 -0.831470
v 0.707107 -1.000000 -0.707107
v 0.831470 -1.000000 -0.555570
v 0.923880 -1.000000 -0.382683
v 0.980785 -1.000000 -0.195090
v 1.000000 -1.000000 -0.000000
v 0.980785 -1.000000 0.195090
v 0.923880 -1.000000 0.382683
v 0.831470 -1.000000 0.555570
v 0.707107 -1.000000 0.707107
v 0.555570 -1.000000 0.831470
v 0.382683 -1.000000 0.923880
v 0.195090 -1.000000 0.980785
v -0.000000 -1.000000 1.000000
v -0.195091 -1.000000 0.980785
v -0.382684 -1.000000 0.923879
v -0.555571 -1.000000 0.831469
v -0.707107 -1.000000 0.707106
v -0.831470 -1.000000 0.555570
v -0.923880 -1.000000 0.382683
v -0.980785 -1.000000 0.195090
v -1.000000 -1.000000 -0.000001
v -0.980785 -1.000000 -0.195091
v -0.923879 -1.000000 -0.382684
v -0.831469 -1.000000 -0.555571
v -0.707106 -1.000000 -0.707108
v -0.555569 -1.000000 -0.831470
v -0.382682 -1.000000 -0.923880
v -0.195089 -1.000000 -0.980786
v 0.000002 1.000000 -1.000000
v 0.195092 1.000000 -0.980785
v 0.382685 1.000000 -0.923879
v 0.555572 1.000000 -0.831469
v 0.707108 1.000000 -0.707105
v 0.831471 1.000000 -0.555569
v 0.923880 1.000000 -0.382682
v 0.980786 1.000000 -0.195088
v 1.000000 1.000000 0.000002
v 0.980785 1.000000 0.195092
v 0.923879 1.000000 0.382685
v 0.831469 1.000000 0.555571
v 0.707106 1.000000 0.707107
v 0.555570 1.000000 0.831470
v 0.382684 1.000000 0.923879
v 0.195091 1.000000 0.980785
v 0.000001 1.000000 1.000000
v -0.195089 1.000000 0.980785
v -0.382682 1.000000 0.923880
v -0.555568 1.000000 0.831471
v -0.707105 1.000000 0.707108
v -0.831468 1.000000 0.555573
v -0.923878 1.000000 0.382686
v -0.980785 1.000000 0.195094
v -1.000000 1.000000 0.000004
v -0.980786 1.000000 -0.195086
v -0.923881 1.000000 -0.382679
v -0.831473 1.000000 -0.555566
v -0.707111 1.000000 -0.707103
v -0.555575 1.000000 -0.831466
v -0.382689 1.000000 -0.923877
v -0.195097 1.000000 -0.980784
v 0.000000 -1.000000 0.000000
v 0.000000 1.000000 -0.000000
vn -0.000000 -1.000000 0.000000
vn 0.000000 1.000000 -0.000000
vn 0.098018 -0.000000 -0.995185
vn 0.290285 -0.000000 -0.956940
vn 0.471398 -0.000000 -0.881921
vn 0.634394 -0.000000 -0.773010
vn 0.773011 -0.000000 -0.634392
vn 0.881922 -0.000000 -0.471396
vn 0.956941 -0.000000 -0.290284
vn 0.995185 -0.000000 -0.098016
vn 0.995185 0.000000 0.098018
vn 0.956940 -0.000000 0.290285
vn 0.881921 0.000000 0.471397
vn 0.773010 0.000000 0.634394
vn 0.634393 0.000000 0.773011
vn 0.471397 0.000000 0.881921
vn 0.290285 0.000000 0.956940
vn 0.098017 0.000000 0.995185
vn -0.098017 0.000000 0.995185
vn -0.290284 0.000000 0.956941
vn -0.471396 0.000000 0.881921
vn -0.634393 0.000000 0.773011
vn -0.773010 0.000000 0.634394
vn -0.881921 0.000000 0.471398
vn -0.956940 -0.000000 0.290286
vn -0.995185 -0.000000 0.098019
vn -0.995185 -0.000000 -0.098016
vn -0.956941 -0.000000 -0.290283
vn -0.881922 -0.000000 -0.471395
vn -0.773012 -0.000000 -0.634391
vn -0.634395 -0.000000 -0.773009
vn -0.471399 -0.000000 -0.881920
vn -0.290287 -0.000000 -0.956940
vn -0.098018 0.000000 -0.995185
usemtl (null)
s off
f 65//1 1//1 2//1
f 66//2 34//2 33//2
f 65//1 2//1 3//1
f 66//2 35//2 34//2
f 65//1 3//1 4//1
f 66//2 36//2 35//2
f 65//1 4//1 5//1
f 66//2 37//2 36//2
f 65//1 5//1 6//1
f 66//2 38//2 37//2
f 65//1 6//1 7//1
f 66//2 39//2 38//2
f 65//1 7//1 8//1
f 66//2 40//2 39//2
f 65//1 8//1 9//1
f 66//2 41//2 40//2
f 65//1 9//1 10//1
f 66//2 42//2 41//2
f 65//1 10//1 11//1
f 66//2 43//2 42//2
f 65//1 11//1 12//1
f 66//2 44//2 43//2
f 65//1 12//1 13//1
f 66//2 45//2 44//2
f 65//1 13//1 14//1
f 66//2 46//2 45//2
f 65//1 14//1 15//1
f 66//2 47//2 46//2
f 65//1 15//1 16//1
f 66//2 48//2 47//2
f 65//1 16//1 17//1
f 66//2 49//2 48//2
f 65//1 17//1 18//1
f 66//2 50//2 49//2
f 65//1 18//1 19//1
f 66//2 51//2 50//2
f 65//1 19//1 20//1
f 66//2 52//2 51//2
f 65//1 20//1 21//1
f 66//2 53//2 52//2
f 65//1 21//1 22//1
f 66//2 54//2 53//2
f 65//1 22//1 23//1
f 66//2 55//2 54//2
f 65//1 23//1 24//1
f 66//2 56//2 55//2
f 65//1 24//1 25//1
f 66//2 57//2 56//2
f 65//1 25//1 26//1
f 66//2 58//2 57//2
f 65//1 26//1 27//1
f 66//2 59//2 58//2
f 65//1 27//1 28//1
f 66//2 60//2 59//2
f 65//1 28//1 29//1
f 66//2 61//2 60//2
f 65//1 29//1 30//1
f 66//2 62//2 61//2
f 65//1 30//1 31//1
f 66//2 63//2 62//2
f 65//1 31//1 32//1
f 66//2 64//2 63//2
f 32//1 1//1 65//1
f 66//2 33//2 64//2
f 1//3 33//3 34//3
f 1//3 34//3 2//3
f 2//4 34//4 35//4
f 2//4 35//4 3//4
f 3//5 35//5 36//5
f 3//5 36//5 4//5
f 4//6 36//6 37//6
f 4//6 37//6 5//6
f 5//7 37//7 38//7
f 5//7 38//7 6//7
f 6//8 38//8 39//8
f 6//8 39//8 7//8
f 7//9 39//9 40//9
f 7//9 40//9 8//9
f 8//10 40//10 41//10
f 8//10 41//10 9//10
f 9//11 41//11 42//11
f 9//11 42//11 10//11
f 10//12 42//12 43//12
f 10//12 43//12 11//12
f 11//13 43//13 44//13
f 11//13 44//13 12//13
f 12//14 44//14 45//14
f 12//14 45//14 13//14
f 13//15 45//15 46//15
f 13//15 46//15 14//15
f 14//16 46//16 47//16
f 14//16 47//16 15//16
f 15//17 47//17 48//17
f 15//17 48//17 16//17
f 16//18 48//18 49//18
f 16//18 49//18 17//18
f 17//19 49//19 50//19
f 17//19 50//19 18//19
f 18//20 50//20 51//20
f 18//20 51//20 19//20
f 19//21 51//21 52//21
f 19//21 52//21 20//21
f 20//22 52//22 53//22
f 20//22 53//22 21//22
f 21//23 53//23 54//23
f 21//23 54//23 22//23
f 22//24 54//24 55//24
f 22//24 55//24 23//24
f 23//25 55//25 56//25
f 23//25 56//25 24//25
f 24//26 56//26 57//26
f 24//26 57//26 25//26
f 25//27 57//27 58//27
f 25//27 58//27 26//27
f 26//28 58//28 59//28
f 26//28 59//28 27//28
f 27//29 59//29 60//29
f 27//29 60//29 28//29
f 28//30 60//30 61//30
f 28//30 61//30 29//30
f 29//31 61//31 62//31
f 29//31 62//31 30//31
f 30//32 62//32 63//32
f 30//32 63//32 31//32
f 31//33 63//33 64//33
f 31//33 64//33 32//33
f 33//34 1//34 32//34
f 33//34 32//34 64//34
